<?xml version="1.0" standalone="no"?>
<!DOCTYPE svg PUBLIC "-//W3C//DTD SVG 20010904//EN"
 "http://www.w3.org/TR/2001/REC-SVG-20010904/DTD/svg10.dtd">
<svg version="1.0" xmlns="http://www.w3.org/2000/svg"
 width="1280.000000pt" height="1280.000000pt" viewBox="0 0 1280.000000 1280.000000"
 preserveAspectRatio="xMidYMid meet">

<g transform="translate(0.000000,1280.000000) scale(0.100000,-0.100000)"
fill="#000000" stroke="none">
<path d="M3171 8099 c-119 -20 -247 -125 -294 -239 l-22 -55 -3 -945 c-2 -621
1 -962 8 -993 28 -133 149 -281 282 -345 121 -58 160 -64 429 -69 278 -6 343
4 476 69 94 46 212 162 252 249 38 81 56 182 38 218 l-13 26 -179 -3 c-221 -3
-238 -6 -255 -37 -11 -21 -10 -28 5 -51 l17 -27 160 7 161 8 -7 -39 c-17 -94
-118 -209 -230 -262 -98 -47 -154 -53 -436 -49 -236 3 -259 5 -312 26 -144 58
-261 180 -284 297 -5 27 2 38 73 111 74 77 169 144 205 144 15 0 16 -19 18
-177 0 -97 3 -179 5 -181 2 -2 42 16 89 42 47 25 89 46 94 46 4 0 36 -18 70
-40 96 -63 92 -69 92 149 l0 190 448 3 c420 4 451 5 508 24 145 49 245 163
274 309 8 43 10 239 8 675 l-3 615 -34 70 c-46 93 -125 175 -204 211 l-62 29
-660 2 c-367 0 -684 -3 -714 -8z m1394 -117 c60 -28 107 -71 143 -132 l27 -45
3 -641 c2 -625 2 -643 -18 -696 -26 -70 -78 -130 -138 -160 l-47 -23 -615 -5
c-559 -5 -620 -8 -670 -24 -94 -31 -182 -79 -237 -129 -38 -35 -54 -45 -58
-35 -3 8 -4 390 -3 849 l3 834 23 50 c41 90 123 156 215 175 23 4 330 8 682 7
l640 -2 50 -23z"/>
<path d="M3316 7765 c-59 -21 -108 -66 -141 -130 l-30 -59 -3 -332 c-3 -325
-3 -333 17 -353 26 -26 46 -26 71 -1 19 19 20 33 20 340 0 343 2 363 51 406
46 41 77 44 449 44 333 0 358 1 373 18 22 24 21 45 -1 65 -17 15 -58 17 -393
17 -292 -1 -383 -4 -413 -15z"/>
<path d="M7363 7720 c-19 -8 -22 -19 -28 -103 -4 -51 -6 -199 -4 -329 4 -255
7 -268 59 -268 52 0 60 23 60 169 0 140 9 180 50 216 33 29 112 28 142 -3 22
-21 23 -32 28 -193 5 -185 8 -192 65 -187 50 5 57 31 52 213 -4 170 -11 198
-59 242 -56 51 -165 50 -235 -3 -17 -13 -34 -24 -37 -24 -3 0 -6 56 -6 124 0
118 -1 126 -22 140 -25 18 -33 19 -65 6z"/>
<path d="M7954 7716 c-18 -14 -19 -29 -19 -341 0 -312 1 -327 19 -341 25 -18
47 -18 72 0 17 13 20 31 24 153 l5 138 185 0 185 0 3 -135 c4 -152 12 -173 66
-168 52 5 56 24 56 319 0 313 -4 355 -36 376 -20 12 -27 13 -51 1 l-28 -13 -3
-138 -3 -137 -189 0 -190 0 0 130 c0 117 -2 132 -20 150 -24 24 -49 25 -76 6z"/>
<path d="M9310 7717 l-25 -13 -3 -328 c-2 -241 1 -332 10 -343 7 -8 25 -13 47
-11 30 2 37 8 45 33 6 17 11 32 13 34 1 2 18 -10 37 -27 61 -53 164 -56 237
-8 60 40 89 108 89 212 0 132 -55 216 -163 245 -51 13 -126 -3 -162 -37 -14
-13 -30 -24 -36 -24 -5 0 -9 51 -9 120 0 107 -2 122 -20 140 -23 23 -27 24
-60 7z m281 -310 c56 -38 75 -159 38 -240 -15 -34 -67 -67 -104 -67 -42 0 -94
29 -113 64 -25 46 -23 161 4 206 36 63 113 79 175 37z"/>
<path d="M5172 7708 c-16 -16 -15 -53 1 -66 7 -6 62 -12 122 -14 l110 -3 2
-284 c2 -250 5 -286 19 -302 20 -23 52 -24 79 -3 19 14 20 28 23 303 l3 288
112 2 c61 1 115 5 119 7 12 8 9 59 -4 72 -17 17 -569 17 -586 0z"/>
<path d="M5923 7511 c-125 -32 -203 -166 -175 -300 16 -76 55 -129 121 -163
46 -24 65 -28 135 -28 130 0 231 60 182 108 -14 14 -20 15 -49 3 -108 -44
-193 -39 -244 16 -22 23 -33 44 -33 64 l0 29 159 0 c191 0 192 0 180 86 -10
74 -49 131 -109 161 -51 26 -120 36 -167 24z m127 -86 c18 -9 34 -30 46 -60 9
-25 15 -47 13 -50 -3 -2 -58 -5 -124 -6 l-120 -2 -3 25 c-3 28 38 85 72 98 33
14 84 11 116 -5z"/>
<path d="M6425 7504 c-76 -19 -107 -39 -103 -66 5 -36 30 -43 88 -25 29 9 74
17 102 17 62 0 98 -31 98 -85 l0 -35 -47 0 c-81 -1 -185 -19 -218 -40 -37 -23
-55 -57 -55 -106 0 -47 24 -86 73 -118 33 -21 53 -26 104 -26 58 0 66 3 103
36 35 32 40 34 46 18 12 -39 22 -49 51 -52 51 -5 55 8 51 207 -3 164 -5 182
-24 208 -49 67 -160 94 -269 67z m185 -294 c0 -105 -134 -158 -193 -78 -17 22
-19 33 -11 55 13 39 48 53 132 53 l72 0 0 -30z"/>
<path d="M7050 7513 c-143 -24 -213 -105 -213 -248 0 -55 5 -80 25 -120 14
-27 34 -58 45 -67 37 -34 107 -58 169 -58 102 0 168 32 162 79 -3 22 -8 26
-33 24 -16 0 -51 -6 -77 -13 -41 -10 -53 -9 -91 8 -55 24 -79 71 -79 153 0 73
23 117 76 143 35 17 45 18 90 7 103 -24 103 -24 115 -2 8 15 9 27 1 40 -17 32
-130 64 -190 54z"/>
<path d="M8704 7485 c-14 -21 -16 -50 -13 -187 4 -143 7 -167 25 -198 32 -56
77 -80 146 -80 64 0 88 9 130 48 26 24 28 24 33 6 13 -39 23 -49 53 -52 57 -6
62 15 62 248 -1 155 -4 209 -14 223 -19 24 -82 23 -96 -2 -5 -11 -10 -82 -10
-158 0 -148 -6 -172 -51 -206 -37 -27 -105 -25 -133 3 -19 19 -21 35 -26 191
-5 184 -7 189 -62 189 -18 0 -33 -8 -44 -25z"/>
<path d="M7370 6512 c-34 -10 -40 -35 -40 -159 0 -68 -3 -123 -6 -123 -3 0
-23 14 -44 31 -45 36 -104 47 -167 30 -96 -26 -153 -115 -153 -241 0 -149 85
-250 207 -250 45 0 110 28 137 59 l20 22 10 -33 c8 -22 20 -36 40 -43 25 -8
31 -6 52 18 l24 28 0 307 c0 254 -3 311 -15 329 -16 22 -41 32 -65 25z m-93
-319 c47 -31 69 -156 39 -227 -21 -50 -60 -76 -116 -76 -89 0 -125 53 -118
174 2 56 9 82 24 103 37 49 116 61 171 26z"/>
<path d="M5471 6481 c-12 -16 -21 -31 -21 -34 0 -6 -186 -423 -230 -515 -17
-34 -30 -71 -30 -81 0 -26 24 -43 57 -39 24 3 33 14 66 81 l38 77 177 0 177 0
24 -56 c13 -30 33 -66 43 -80 30 -38 98 -28 98 14 0 13 -213 488 -266 594 -38
75 -96 92 -133 39z m72 -128 c3 -10 26 -67 52 -128 26 -60 51 -120 56 -132 l9
-23 -131 0 c-120 0 -131 1 -126 18 3 9 24 62 47 117 23 55 48 115 55 133 15
35 30 41 38 15z"/>
<path d="M6096 6286 c-96 -36 -146 -103 -154 -205 -10 -140 47 -233 164 -267
121 -35 270 19 234 86 -13 23 -35 25 -70 5 -31 -18 -107 -19 -140 -2 -46 23
-70 73 -70 144 0 71 15 110 56 142 33 26 107 28 161 6 34 -15 38 -14 56 4 12
12 17 26 13 38 -15 48 -172 78 -250 49z"/>
<path d="M6547 6290 c-85 -21 -123 -62 -90 -95 18 -19 21 -19 74 1 24 8 70 16
102 16 72 1 99 -20 101 -79 l1 -38 -102 -6 c-157 -10 -216 -47 -216 -136 0
-61 27 -101 86 -129 68 -31 119 -31 174 1 23 14 43 30 43 35 0 6 5 10 10 10 6
0 10 -9 10 -19 0 -20 35 -51 57 -51 7 0 22 9 33 20 18 18 20 33 20 163 -1 205
-16 252 -96 292 -44 22 -147 29 -207 15z m186 -299 c-3 -70 -47 -111 -119
-111 -49 0 -84 32 -84 76 0 52 46 74 150 71 l55 -2 -2 -34z"/>
<path d="M7721 6288 c-91 -26 -152 -111 -159 -223 -4 -63 -1 -80 21 -128 30
-66 84 -109 158 -127 126 -30 298 29 273 94 -9 22 -34 24 -87 4 -58 -22 -148
-23 -188 -2 -33 17 -78 99 -62 115 5 5 83 10 173 11 l165 3 3 34 c8 83 -47
178 -122 212 -44 20 -120 23 -175 7z m150 -78 c24 -13 49 -61 49 -95 l0 -25
-119 0 c-66 0 -122 3 -124 8 -10 17 15 72 44 96 24 20 41 26 80 26 28 0 59 -5
70 -10z"/>
<path d="M8345 6293 c-11 -3 -37 -18 -57 -34 l-36 -29 -8 22 c-9 30 -22 38
-61 38 -22 0 -36 -6 -43 -19 -6 -12 -10 -103 -10 -225 0 -193 1 -207 20 -226
21 -21 47 -25 66 -12 27 18 34 56 34 180 0 71 5 143 11 160 14 40 49 62 98 62
31 0 44 -6 60 -26 19 -24 21 -40 21 -179 0 -133 2 -156 18 -175 11 -13 29 -22
46 -22 48 0 55 23 56 174 0 187 21 228 115 228 43 0 75 -29 75 -67 4 -300 4
-302 26 -323 17 -18 25 -19 50 -10 16 6 32 17 36 23 11 18 9 316 -2 358 -21
77 -95 118 -185 105 -35 -6 -58 -17 -90 -47 l-43 -39 -16 25 c-35 54 -107 76
-181 58z"/>
<path d="M8970 6271 c-12 -23 -16 -10 89 -259 l81 -190 -30 -67 c-35 -77 -36
-93 -12 -111 48 -37 75 -6 156 178 35 80 67 156 71 168 4 13 24 59 45 104 66
141 71 156 60 177 -13 24 -61 25 -83 2 -8 -10 -44 -87 -78 -171 -35 -84 -66
-149 -70 -145 -4 5 -33 71 -64 148 -31 77 -63 150 -71 163 -19 29 -78 31 -94
3z"/>
</g>
</svg>
